<svg xmlns="http://www.w3.org/2000/svg" viewBox="0 0 520 480" font-family="Segoe UI, Arial, sans-serif">
  <!-- Background -->
  <rect width="520" height="480" rx="12" fill="#2b2b2b"/>

  <!-- Title -->
  <text x="260" y="35" text-anchor="middle" fill="#c0c0c0" font-size="20" font-weight="bold">Wheel Layout (Top-Down View)</text>

  <!-- Robot body circle -->
  <circle cx="260" cy="255" r="120" fill="none" stroke="#555" stroke-width="1.5" stroke-dasharray="6,4"/>
  <circle cx="260" cy="255" r="4" fill="#888"/>

  <!-- Radius lines (center to each wheel) -->
  <line x1="260" y1="255" x2="260" y2="115" stroke="#444" stroke-width="1" stroke-dasharray="4,3"/>
  <line x1="260" y1="255" x2="156" y2="315" stroke="#444" stroke-width="1" stroke-dasharray="4,3"/>
  <line x1="260" y1="255" x2="364" y2="315" stroke="#444" stroke-width="1" stroke-dasharray="4,3"/>

  <!-- Wheel 1 (front, 90 degrees) -->
  <rect x="225" y="90" width="70" height="30" rx="6" fill="#4a3f6b" stroke="#7b6faf" stroke-width="2"/>
  <text x="260" y="110" text-anchor="middle" fill="#d0c8f0" font-size="13" font-weight="bold">Wheel 1</text>
  <!-- Label -->
  <rect x="195" y="55" width="130" height="28" rx="5" fill="#3a3355"/>
  <text x="260" y="74" text-anchor="middle" fill="#c4b8f0" font-size="13">M1 / front / 90</text>

  <!-- Wheel 2 (rear-left, 210 degrees) -->
  <rect x="110" y="320" width="70" height="30" rx="6" fill="#4a3f6b" stroke="#7b6faf" stroke-width="2" transform="rotate(-60, 145, 335)"/>
  <text x="133" y="340" text-anchor="middle" fill="#d0c8f0" font-size="13" font-weight="bold">Wheel 2</text>
  <!-- Label -->
  <rect x="55" y="365" width="155" height="28" rx="5" fill="#3a3355"/>
  <text x="133" y="384" text-anchor="middle" fill="#c4b8f0" font-size="13">M2 / rear-left / 210</text>

  <!-- Wheel 3 (rear-right, 330 degrees) -->
  <rect x="340" y="320" width="70" height="30" rx="6" fill="#4a3f6b" stroke="#7b6faf" stroke-width="2" transform="rotate(60, 375, 335)"/>
  <text x="388" y="340" text-anchor="middle" fill="#d0c8f0" font-size="13" font-weight="bold">Wheel 3</text>
  <!-- Label -->
  <rect x="308" y="365" width="160" height="28" rx="5" fill="#3a3355"/>
  <text x="388" y="384" text-anchor="middle" fill="#c4b8f0" font-size="13">M3 / rear-right / 330</text>

  <!-- 60mm radius annotation -->
  <text x="310" y="185" fill="#888" font-size="12" transform="rotate(-70, 310, 185)">60 mm</text>

  <!-- Direction arrows showing holonomic motion -->
  <!-- Up -->
  <line x1="260" y1="255" x2="260" y2="195" stroke="#5a8a5a" stroke-width="1.5" marker-end="url(#dir-arrow)"/>
  <!-- Down -->
  <line x1="260" y1="255" x2="260" y2="315" stroke="#5a8a5a" stroke-width="1.5" marker-end="url(#dir-arrow)"/>
  <!-- Left -->
  <line x1="260" y1="255" x2="200" y2="255" stroke="#5a8a5a" stroke-width="1.5" marker-end="url(#dir-arrow)"/>
  <!-- Right -->
  <line x1="260" y1="255" x2="320" y2="255" stroke="#5a8a5a" stroke-width="1.5" marker-end="url(#dir-arrow)"/>
  <!-- Diagonals -->
  <line x1="260" y1="255" x2="218" y2="213" stroke="#5a8a5a" stroke-width="1" marker-end="url(#dir-arrow)"/>
  <line x1="260" y1="255" x2="302" y2="213" stroke="#5a8a5a" stroke-width="1" marker-end="url(#dir-arrow)"/>
  <line x1="260" y1="255" x2="218" y2="297" stroke="#5a8a5a" stroke-width="1" marker-end="url(#dir-arrow)"/>
  <line x1="260" y1="255" x2="302" y2="297" stroke="#5a8a5a" stroke-width="1" marker-end="url(#dir-arrow)"/>

  <defs>
    <marker id="dir-arrow" markerWidth="6" markerHeight="5" refX="6" refY="2.5" orient="auto">
      <path d="M0,0 L6,2.5 L0,5" fill="#5a8a5a"/>
    </marker>
  </defs>

  <!-- Caption -->
  <text x="260" y="440" text-anchor="middle" fill="#777" font-size="13">Holonomic: moves in any direction without rotating</text>
  <text x="260" y="460" text-anchor="middle" fill="#555" font-size="12">Wheels at 120 intervals, 48 mm diameter</text>
</svg>
